<svg xmlns="http://www.w3.org/2000/svg" viewBox="0 0 123.63 37.72"><defs><style>.cls-1{fill:#231f20;}</style></defs><g id="Layer_2" data-name="Layer 2"><g id="Layer_1-2" data-name="Layer 1"><path class="cls-1" d="M123.63,37.72H0V0H123.63ZM1.68,36H121.94V1.68H1.68Z"/><rect class="cls-1" x="0.84" y="5.87" width="121.94" height="1.37"/><rect class="cls-1" x="2.04" y="7.24" width="1.72" height="29.23"/><rect class="cls-1" x="4.11" y="7.24" width="1.72" height="29.23"/><rect class="cls-1" x="6.18" y="7.24" width="1.72" height="29.23"/><rect class="cls-1" x="8.24" y="7.24" width="1.72" height="29.23"/><rect class="cls-1" x="10.31" y="7.24" width="1.72" height="29.23"/><rect class="cls-1" x="12.38" y="7.24" width="1.72" height="29.23"/><rect class="cls-1" x="14.45" y="7.24" width="1.72" height="29.23"/><rect class="cls-1" x="16.51" y="7.24" width="1.72" height="29.23"/><rect class="cls-1" x="18.58" y="7.24" width="1.72" height="29.23"/><rect class="cls-1" x="20.65" y="7.24" width="1.72" height="29.23"/><rect class="cls-1" x="22.72" y="7.24" width="1.72" height="29.23"/><rect class="cls-1" x="24.78" y="7.24" width="1.72" height="29.23"/><rect class="cls-1" x="26.85" y="7.24" width="1.72" height="29.23"/><rect class="cls-1" x="28.92" y="7.24" width="1.72" height="29.23"/><rect class="cls-1" x="30.99" y="7.24" width="1.72" height="29.23"/><rect class="cls-1" x="33.05" y="7.24" width="1.72" height="29.23"/><rect class="cls-1" x="35.12" y="7.24" width="1.72" height="29.23"/><rect class="cls-1" x="37.19" y="7.24" width="1.72" height="29.23"/><rect class="cls-1" x="39.26" y="7.24" width="1.72" height="29.23"/><rect class="cls-1" x="41.33" y="7.24" width="1.72" height="29.23"/><rect class="cls-1" x="43.39" y="7.24" width="1.72" height="29.23"/><rect class="cls-1" x="45.46" y="7.24" width="1.72" height="29.23"/><rect class="cls-1" x="47.53" y="7.24" width="1.72" height="29.23"/><rect class="cls-1" x="49.6" y="7.24" width="1.72" height="29.23"/><rect class="cls-1" x="51.66" y="7.24" width="1.72" height="29.23"/><rect class="cls-1" x="53.73" y="7.24" width="1.72" height="29.23"/><rect class="cls-1" x="55.8" y="7.24" width="1.72" height="29.23"/><rect class="cls-1" x="57.87" y="7.24" width="1.72" height="29.23"/><rect class="cls-1" x="59.93" y="7.24" width="1.72" height="29.23"/><rect class="cls-1" x="62" y="7.24" width="1.72" height="29.23"/><rect class="cls-1" x="64.07" y="7.24" width="1.72" height="29.23"/><rect class="cls-1" x="66.14" y="7.24" width="1.72" height="29.23"/><rect class="cls-1" x="68.21" y="7.24" width="1.72" height="29.23"/><rect class="cls-1" x="70.27" y="7.24" width="1.72" height="29.23"/><rect class="cls-1" x="72.34" y="7.24" width="1.72" height="29.23"/><rect class="cls-1" x="74.41" y="7.24" width="1.72" height="29.23"/><rect class="cls-1" x="76.48" y="7.24" width="1.72" height="29.23"/><rect class="cls-1" x="78.54" y="7.24" width="1.72" height="29.23"/><rect class="cls-1" x="80.61" y="7.24" width="1.72" height="29.23"/><rect class="cls-1" x="82.68" y="7.24" width="1.72" height="29.23"/><rect class="cls-1" x="84.75" y="7.24" width="1.72" height="29.23"/><rect class="cls-1" x="86.81" y="7.24" width="1.72" height="29.23"/><rect class="cls-1" x="88.88" y="7.24" width="1.72" height="29.23"/><rect class="cls-1" x="90.95" y="7.24" width="1.72" height="29.23"/><rect class="cls-1" x="93.02" y="7.24" width="1.72" height="29.23"/><rect class="cls-1" x="95.08" y="7.24" width="1.72" height="29.23"/><rect class="cls-1" x="97.15" y="7.24" width="1.72" height="29.23"/><rect class="cls-1" x="99.22" y="7.24" width="1.72" height="29.23"/><rect class="cls-1" x="101.29" y="7.24" width="1.72" height="29.23"/><rect class="cls-1" x="103.36" y="7.24" width="1.72" height="29.23"/><rect class="cls-1" x="105.42" y="7.24" width="1.72" height="29.23"/><rect class="cls-1" x="107.49" y="7.24" width="1.72" height="29.23"/><rect class="cls-1" x="109.56" y="7.24" width="1.72" height="29.23"/><rect class="cls-1" x="111.63" y="7.24" width="1.72" height="29.23"/><rect class="cls-1" x="113.69" y="7.24" width="1.72" height="29.23"/><rect class="cls-1" x="115.76" y="7.24" width="1.72" height="29.23"/><rect class="cls-1" x="117.83" y="7.24" width="1.72" height="29.23"/><rect class="cls-1" x="119.9" y="7.24" width="1.72" height="29.23"/><rect class="cls-1" x="3.55" y="1.42" width="0.41" height="4.45"/><rect class="cls-1" x="7.83" y="1.42" width="0.41" height="4.45"/><rect class="cls-1" x="12.11" y="1.42" width="0.41" height="4.45"/><rect class="cls-1" x="16.39" y="1.42" width="0.41" height="4.45"/><rect class="cls-1" x="20.67" y="1.42" width="0.41" height="4.45"/><rect class="cls-1" x="24.96" y="1.42" width="0.41" height="4.45"/><rect class="cls-1" x="29.24" y="1.42" width="0.41" height="4.45"/><rect class="cls-1" x="33.52" y="1.42" width="0.41" height="4.45"/><rect class="cls-1" x="37.8" y="1.42" width="0.41" height="4.45"/><rect class="cls-1" x="42.08" y="1.42" width="0.41" height="4.45"/><rect class="cls-1" x="46.36" y="1.42" width="0.41" height="4.45"/><rect class="cls-1" x="50.65" y="1.42" width="0.41" height="4.45"/><rect class="cls-1" x="54.93" y="1.42" width="0.41" height="4.45"/><rect class="cls-1" x="59.21" y="1.42" width="0.41" height="4.45"/><rect class="cls-1" x="63.49" y="1.42" width="0.41" height="4.45"/><rect class="cls-1" x="67.77" y="1.42" width="0.41" height="4.45"/><rect class="cls-1" x="72.05" y="1.42" width="0.41" height="4.45"/><rect class="cls-1" x="76.34" y="1.42" width="0.41" height="4.45"/><rect class="cls-1" x="80.62" y="1.42" width="0.41" height="4.45"/><rect class="cls-1" x="84.9" y="1.42" width="0.41" height="4.45"/><rect class="cls-1" x="89.18" y="1.42" width="0.41" height="4.45"/><rect class="cls-1" x="93.46" y="1.42" width="0.41" height="4.45"/><rect class="cls-1" x="97.74" y="1.42" width="0.41" height="4.45"/><rect class="cls-1" x="102.03" y="1.42" width="0.41" height="4.45"/><rect class="cls-1" x="106.31" y="1.42" width="0.41" height="4.45"/><rect class="cls-1" x="110.59" y="1.42" width="0.41" height="4.45"/><rect class="cls-1" x="114.87" y="1.42" width="0.41" height="4.45"/><rect class="cls-1" x="119.15" y="1.42" width="0.41" height="4.45"/></g></g></svg>