<?xml version="1.0" encoding="utf-8"?>
<!-- Generator: Adobe Illustrator 24.2.3, SVG Export Plug-In . SVG Version: 6.00 Build 0)  -->
<svg version="1.1" id="Layer_1" xmlns="http://www.w3.org/2000/svg" xmlns:xlink="http://www.w3.org/1999/xlink" x="0px" y="0px"
	 viewBox="0 0 262.98 122.25" style="enable-background:new 0 0 262.98 122.25;" xml:space="preserve">
<style type="text/css">
	.st0{fill:none;}
	.st1{fill:#1A1A1A;}
</style>
<path class="st0" d="M133.25,20.77h-3.54c0.33,1.2,0.61,2.54,0.83,4.06h1.88C132.64,23.31,132.93,21.97,133.25,20.77z"/>
<path class="st0" d="M242.41,23.14v-2.37h-108.1c-1.34,2.17-1.89,4.06-1.89,4.06h105.82l0.59,2.65c1.67,7.7,7.74,13.77,15.44,15.44
	l2.65,0.58v54.04l-2.65,0.58c-7.7,1.68-13.76,7.74-15.44,15.44l-0.59,2.65H24.71l-0.58-2.65c-1.69-7.69-7.74-13.76-15.44-15.44
	l-2.65-0.58V43.5l2.65-0.58c7.7-1.68,13.77-7.74,15.44-15.44l0.58-2.65h105.83c0,0-0.55-1.89-1.89-4.06H20.55v2.37
	c0,8.93-7.27,16.2-16.2,16.2H1.98v62.37h2.37c8.93,0,16.2,7.26,16.2,16.19v2.37h221.86v-2.37c0-8.92,7.27-16.19,16.2-16.19h2.37
	V39.34h-2.37C249.68,39.34,242.41,32.07,242.41,23.14z"/>
<path class="st1" d="M258.61,37.35c-7.84,0-14.22-6.38-14.22-14.21v-4.36H135.73c1.96-2.35,4.89-4.47,9.09-4.4l-4.08-3.26
	c0,0-4.27,0.46-6.87,7.66h-4.78c-2.6-7.2-6.87-7.66-6.87-7.66l-4.08,3.26c4.2-0.07,7.13,2.05,9.09,4.4H18.57v4.36
	c0,7.84-6.38,14.21-14.21,14.21H0v66.34h4.36c7.84,0,14.21,6.37,14.21,14.2v4.36H244.4v-4.36c0-7.83,6.38-14.2,14.22-14.2h4.36
	V37.35H258.61z M260.99,101.71h-2.37c-8.93,0-16.2,7.26-16.2,16.19v2.37H20.55v-2.37c0-8.92-7.27-16.19-16.2-16.19H1.98V39.34h2.37
	c8.93,0,16.2-7.27,16.2-16.2v-2.37h108.1c1.34,2.17,1.89,4.06,1.89,4.06c-0.22-1.52-0.5-2.86-0.83-4.06h3.54
	c-0.32,1.2-0.61,2.54-0.83,4.06c0,0,0.55-1.89,1.89-4.06h108.1v2.37c0,8.93,7.27,16.2,16.2,16.2h2.37L260.99,101.71L260.99,101.71z"
	/>
<path class="st1" d="M24.13,27.47c-1.68,7.7-7.74,13.77-15.44,15.44l-2.65,0.58v54.04l2.65,0.58c7.7,1.68,13.76,7.74,15.44,15.44
	l0.58,2.65h213.53l0.59-2.65c1.69-7.69,7.74-13.76,15.44-15.44l2.65-0.58V43.49l-2.65-0.58c-7.7-1.68-13.78-7.74-15.44-15.44
	l-0.59-2.65H132.42h-1.88H24.71L24.13,27.47z M234.64,29.34c2.23,8.69,9.08,15.53,17.77,17.77v46.81
	c-8.68,2.24-15.53,9.08-17.77,17.76H28.33c-2.25-8.69-9.09-15.53-17.77-17.76V47.11c8.69-2.24,15.53-9.08,17.77-17.77H234.64z"/>
<polygon class="st1" points="134.18,5.49 131.48,0 128.79,5.49 131.48,18.54 "/>
<g>
	<path d="M51.77,62.13c0,0.12-0.17,0.18-0.49,0.19c-0.76,0.01-1.27,0.11-1.54,0.28c-0.26,0.17-0.53,0.58-0.81,1.21l-0.88,2.01
		c-2.13,4.86-3.63,8.58-4.5,11.17c-0.05,0.17-0.14,0.26-0.26,0.26c-0.14,0-0.43-0.54-0.86-1.62c-0.78-1.97-1.39-3.45-1.82-4.44
		c-0.46-1.09-1.15-2.73-2.06-4.9l-1.27-2.9c-0.17-0.4-0.36-0.67-0.57-0.81s-0.56-0.21-1.04-0.23c-0.57-0.01-0.91-0.03-1.03-0.04
		c-0.11-0.01-0.17-0.07-0.17-0.17c0-0.13,0.17-0.19,0.52-0.19h0.23c0.31,0,0.85,0.01,1.63,0.03c0.77,0.02,1.32,0.03,1.65,0.03
		c0.09,0,0.42-0.01,1-0.03s1.41-0.03,2.49-0.03h0.36c0.31,0,0.47,0.07,0.47,0.2c0,0.14-0.31,0.22-0.94,0.24l-1.59,0.04
		c-0.36,0.01-0.55,0.11-0.55,0.29c0,0.03,0.02,0.09,0.05,0.18l0.2,0.58c0.04,0.12,0.88,2.14,2.55,6.07
		c0.28,0.68,0.81,1.97,1.59,3.87c2.86-6.71,4.28-10.24,4.28-10.59c0-0.33-0.43-0.48-1.28-0.45h-0.81c-0.21,0-0.31-0.06-0.31-0.19
		c0-0.16,0.26-0.24,0.78-0.24c0.1,0,0.4,0,0.88,0c0.49,0.04,0.84,0.06,1.07,0.06h0.83l1.72-0.06
		C51.61,61.95,51.77,62.01,51.77,62.13z"/>
	<path d="M58.71,76.79c0,0.12-0.1,0.18-0.31,0.18h-0.26c-0.1-0.04-1.28-0.06-3.54-0.06c-0.43,0-0.87,0.01-1.3,0.04
		c-0.23,0.01-0.57,0.02-1.04,0.02c-0.23,0-0.34-0.06-0.34-0.19c0-0.11,0.23-0.18,0.68-0.19c0.69-0.01,1.1-0.08,1.22-0.21
		c0.12-0.12,0.18-0.54,0.18-1.24V63.77c0-0.71-0.04-1.1-0.13-1.19c-0.11-0.14-0.59-0.23-1.45-0.26c-0.33-0.01-0.5-0.06-0.5-0.15
		c0-0.11,0.1-0.17,0.31-0.17h3.54c0.26,0,0.77,0.01,1.52,0.02l1-0.02c0.28,0,0.42,0.06,0.42,0.18c0,0.11-0.39,0.18-1.16,0.2
		c-0.44,0.01-0.71,0.08-0.8,0.19c-0.1,0.12-0.14,0.42-0.14,0.91v11.51c0,0.82,0.04,1.26,0.13,1.34c0.19,0.16,0.75,0.25,1.69,0.28
		C58.62,76.61,58.71,76.67,58.71,76.79z"/>
	<path d="M74.01,73.51c0,0.06-0.02,0.41-0.05,1.06s-0.05,1.26-0.05,1.85v0.71c-1.7-0.09-5.07-0.13-10.1-0.13c-0.61,0-1.21,0-1.8,0
		s-0.99,0-1.2,0h-0.26c-0.33,0-0.49-0.06-0.49-0.17c0-0.08,0.05-0.12,0.16-0.13c0.05,0,0.38-0.02,0.99-0.06
		c0.45-0.03,0.72-0.11,0.82-0.24s0.14-0.47,0.14-1.02V63.23c0-0.42-0.07-0.67-0.22-0.75s-0.62-0.12-1.42-0.12
		c-0.28,0-0.42-0.06-0.42-0.18S60.3,62,60.68,62h4.45c0.16,0,1.14,0,2.94,0s3.02,0,3.64,0c0.52,0,1-0.03,1.43-0.09
		c0.03,0.62,0.11,1.47,0.23,2.56l0.1,0.93c0.02,0.07,0.03,0.17,0.03,0.28c0,0.14-0.08,0.22-0.23,0.22c-0.19,0-0.33-0.18-0.42-0.54
		c-0.33-1.3-0.87-2.13-1.61-2.47c-0.56-0.26-2.01-0.39-4.37-0.39h-2.13v6.34h0.62c1.94,0,3.13-0.12,3.55-0.37
		c0.42-0.24,0.72-0.96,0.87-2.13c0.03-0.3,0.13-0.45,0.29-0.45c0.19,0,0.29,0.13,0.29,0.39s-0.02,0.64-0.05,1.14
		c-0.04,0.5-0.05,0.88-0.05,1.14c0,1.54,0.03,2.59,0.08,3.17c0.01,0.14,0.02,0.27,0.02,0.37c0,0.19-0.1,0.28-0.28,0.28
		c-0.12,0-0.2-0.06-0.25-0.18s-0.12-0.52-0.22-1.2c-0.14-0.85-0.56-1.37-1.27-1.57c-0.31-0.09-1.12-0.13-2.43-0.13h-1.17v7.22
		c3.82,0,6.05-0.06,6.71-0.19c1.15-0.21,1.8-1.12,1.95-2.72c0.03-0.35,0.15-0.53,0.34-0.53C73.93,73.05,74.01,73.2,74.01,73.51z"/>
	<path d="M99.02,62.18c0,0.12-0.3,0.19-0.88,0.2c-0.66,0.01-1.1,0.19-1.31,0.54c-0.22,0.34-0.55,1.08-1,2.2
		c-0.78,1.97-1.48,3.64-2.08,5.02c-1.04,2.36-1.98,4.63-2.83,6.83c-0.07,0.19-0.16,0.28-0.27,0.28c-0.09,0-0.17-0.07-0.25-0.21
		s-0.32-0.64-0.71-1.5c-0.48-1.12-1.01-2.25-1.58-3.39c-0.45-0.89-0.89-1.81-1.32-2.76c-1.21,2.43-2.41,4.96-3.6,7.61
		c-0.07,0.17-0.16,0.26-0.26,0.26c-0.09,0-0.19-0.12-0.31-0.37c-0.54-1.06-2.53-5.47-5.99-13.21c-0.24-0.55-0.43-0.89-0.55-1.02
		c-0.12-0.14-0.42-0.21-0.91-0.23c-0.83-0.03-1.25-0.13-1.25-0.3c0-0.13,0.14-0.19,0.42-0.19c0.12,0,0.23,0.01,0.31,0.02
		c0.92,0.04,1.91,0.06,2.97,0.06c0.21,0,0.57-0.01,1.08-0.04c0.51-0.03,1.17-0.04,1.99-0.04h0.29c0.29,0,0.44,0.07,0.44,0.2
		c0,0.16-0.27,0.25-0.8,0.26c-1.07,0.03-1.6,0.15-1.6,0.35c0,0.4,1.59,4.15,4.78,11.23c1.16-2.43,2.02-4.21,2.6-5.36l-2.57-5.52
		c-0.14-0.3-0.3-0.49-0.48-0.58c-0.18-0.09-0.52-0.14-1.01-0.15c-0.49-0.01-0.73-0.08-0.73-0.19c0-0.16,0.18-0.24,0.55-0.24
		c0.28,0,0.62,0.01,1.01,0.04c0.4,0.03,1.09,0.04,2.08,0.04h1.98h2.86c0.64,0,1.41-0.02,2.32-0.07c0.1-0.01,0.23-0.02,0.36-0.02
		c0.42,0,0.62,0.08,0.62,0.23c0,0.14-0.15,0.2-0.44,0.2h-0.44c-0.78,0-1.37,0.09-1.77,0.26c-0.17,0.07-0.49,0.59-0.96,1.55
		c-0.21,0.4-0.56,1.08-1.05,2.04c-0.1,0.22-0.25,0.54-0.46,0.97c0.12,0.29,0.5,1.09,1.14,2.39c0.82,1.66,1.5,3.09,2.04,4.28
		c0.98-2.33,2.13-5.08,3.45-8.25c0.7-1.69,1.05-2.63,1.05-2.82c0-0.27-0.3-0.41-0.91-0.41c-0.85,0-1.27-0.08-1.27-0.24
		c0-0.14,0.17-0.22,0.52-0.22c0.29,0,0.53,0.01,0.7,0.03c0.38,0.04,0.73,0.06,1.04,0.06h2.08c0.52,0,0.81,0.02,0.86,0.05
		C98.99,62.1,99.02,62.14,99.02,62.18z M88.01,62.43H87.7h-0.44c-0.62,0.03-0.94,0.12-0.94,0.28c0,0.03,0.51,1.28,1.53,3.75
		c0.4-0.72,0.86-1.67,1.4-2.85c0.07-0.16,0.18-0.36,0.32-0.62l0.05-0.17C89.62,62.56,89.09,62.43,88.01,62.43z"/>
	<path d="M116.06,65.6c0,1.39-0.72,2.48-2.16,3.25c-0.9,0.49-2.05,0.73-3.43,0.73c-0.59,0-1.26-0.05-2-0.15v6.12
		c0,0.33,0.02,0.54,0.05,0.62c0.09,0.2,0.28,0.32,0.57,0.37c0.5,0.06,0.99,0.09,1.46,0.09c0.19,0,0.29,0.05,0.29,0.15
		c0,0.14-0.12,0.22-0.36,0.22c-0.1,0-0.19,0-0.26,0c-0.95,0-2.75,0-5.39,0h-0.34c-0.52,0-0.78-0.07-0.78-0.22
		c0-0.1,0.18-0.15,0.55-0.15c0.81,0,1.28-0.06,1.4-0.19c0.14-0.06,0.22-0.2,0.23-0.43V63.27c0-0.45-0.15-0.72-0.44-0.82
		c-0.17-0.06-0.48-0.09-0.91-0.09h-0.26c-0.05,0-0.11,0-0.18,0c-0.26,0-0.39-0.06-0.39-0.17c0-0.13,0.24-0.19,0.73-0.19h5.72
		c1.98,0,3.43,0.29,4.35,0.86C115.54,63.51,116.06,64.42,116.06,65.6z M113.33,65.62c0-2.17-1.09-3.25-3.28-3.25
		c-0.73,0-1.21,0.1-1.43,0.3c-0.1,0.09-0.16,0.31-0.16,0.67v5.77c0.14,0.01,0.29,0.02,0.47,0.02c1.15,0,2.12-0.21,2.91-0.63
		C112.83,67.98,113.33,67.02,113.33,65.62z"/>
	<path d="M131.67,76.33c0,0.6-0.61,0.91-1.82,0.91c-1.35,0-2.41-0.47-3.17-1.4c-0.33-0.4-0.54-0.79-0.64-1.16
		c-0.1-0.37-0.24-1.32-0.43-2.84c-0.1-0.92-0.46-1.57-1.07-1.95c-0.61-0.38-1.6-0.58-2.97-0.61v6.79c0,0.29,0.28,0.47,0.83,0.54
		c0.16,0.01,0.55,0.03,1.2,0.04c0.23,0,0.34,0.06,0.34,0.17c0,0.13-0.15,0.19-0.44,0.19h-0.31c-0.16,0-0.91,0-2.26,0
		c-0.26,0-0.7,0-1.33,0c-0.61,0-1.01,0-1.2,0h-1.01c-0.38,0-0.57-0.06-0.57-0.19c0-0.1,0.25-0.16,0.75-0.17
		c0.82-0.01,1.26-0.1,1.33-0.26c0.07-0.07,0.1-0.35,0.1-0.84v-11.9c0-0.58-0.07-0.92-0.22-1.04c-0.15-0.11-0.59-0.18-1.34-0.19
		c-0.43,0-0.65-0.06-0.65-0.19c0-0.14,0.14-0.22,0.42-0.22c0.05,0,0.13,0.01,0.23,0.02l3.46,0.07c0.35,0,0.83-0.01,1.46-0.03
		c0.69-0.04,1.18-0.06,1.46-0.06c1.61,0,2.89,0.3,3.84,0.89c0.95,0.6,1.42,1.41,1.42,2.42s-0.49,1.84-1.46,2.49
		c-0.97,0.65-2.29,1.04-3.96,1.15c-0.16,0.01-0.24,0.04-0.26,0.06c0,0.06,0.09,0.09,0.26,0.09c1.82,0.26,3.07,0.79,3.76,1.59
		s1.14,2.24,1.37,4.33c0.14,1.18,0.62,1.77,1.46,1.77c0.26,0,0.39-0.04,0.39-0.13c0-0.01-0.01-0.03-0.03-0.04
		c-0.09-0.16-0.13-0.29-0.13-0.39c0-0.3,0.19-0.45,0.57-0.45C131.46,75.79,131.67,75.97,131.67,76.33z M126.29,65.53
		c0-2.05-1.08-3.08-3.23-3.08c-0.57,0-0.96,0.06-1.17,0.19c-0.21,0.13-0.31,0.36-0.31,0.69v5.47c1.67,0.01,2.87-0.24,3.6-0.75
		C125.92,67.54,126.29,66.69,126.29,65.53z"/>
	<path d="M149.16,69.58c0,2.14-0.78,3.95-2.33,5.43s-3.46,2.22-5.71,2.22c-2.39,0-4.41-0.75-6.04-2.25s-2.45-3.35-2.45-5.55
		c0-2.24,0.78-4.08,2.35-5.51s3.58-2.14,6.02-2.14c2.31,0,4.24,0.75,5.8,2.24C148.38,65.52,149.16,67.37,149.16,69.58z
		 M146.24,69.69c0-2.64-0.65-4.69-1.95-6.16c-0.82-0.92-1.95-1.38-3.41-1.38c-1.39,0-2.46,0.35-3.23,1.06
		c-1.4,1.3-2.11,3.41-2.11,6.33c0,2.32,0.49,4.12,1.47,5.4s2.35,1.92,4.12,1.92c1.65,0,2.89-0.61,3.72-1.82
		C145.78,73.71,146.24,71.93,146.24,69.69z"/>
	<path d="M167.81,69.5c0,2.54-1.07,4.51-3.2,5.92c-1.56,1.04-3.65,1.56-6.27,1.56c-0.07,0-0.38,0-0.92,0s-1.34,0-2.38,0h-1.3h-2.06
		c-0.12,0-0.25,0-0.39,0c-0.33,0-0.49-0.07-0.49-0.22c0-0.13,0.28-0.19,0.83-0.19c0.71,0,1.15-0.11,1.33-0.32
		c0.07-0.1,0.1-0.37,0.1-0.82V63.81c0-0.7-0.06-1.11-0.19-1.23c-0.13-0.11-0.58-0.17-1.34-0.17c-0.4,0-0.6-0.08-0.6-0.24
		c0-0.12,0.15-0.17,0.44-0.17c-0.02,0,0.17,0,0.57,0s0.79,0,1.17,0h2.78c3.12,0,5.33,0.18,6.64,0.54c1.58,0.43,2.85,1.29,3.82,2.56
		C167.33,66.37,167.81,67.84,167.81,69.5z M164.9,69.41c0-2.39-0.56-4.15-1.69-5.26c-1.13-1.12-2.89-1.68-5.28-1.68
		c-1.16,0-1.86,0.1-2.11,0.3c-0.1,0.1-0.16,0.45-0.16,1.04v11.5c0,0.4,0.01,0.65,0.04,0.74c0.03,0.09,0.1,0.16,0.22,0.22
		c0.42,0.17,1.29,0.26,2.63,0.26c1.87,0,3.38-0.55,4.53-1.64C164.29,73.73,164.9,71.9,164.9,69.41z"/>
	<path d="M185.98,62.21c0,0.12-0.16,0.17-0.47,0.17c-0.05,0-0.23,0-0.52,0c-0.09,0-0.21,0-0.36,0c-0.43,0-0.69,0.09-0.78,0.28
		c-0.04,0.1-0.05,0.27-0.05,0.5v8.07c0,2.09-0.47,3.62-1.42,4.57c-0.95,0.96-2.47,1.43-4.57,1.43c-2.52,0-4.28-0.59-5.31-1.77
		c-0.68-0.79-1.01-2.09-1.01-3.9v-8.64c-0.05-0.26-0.26-0.42-0.63-0.47c-0.11-0.01-0.43-0.02-0.97-0.02
		c-0.3-0.03-0.45-0.1-0.45-0.22c0-0.13,0.12-0.19,0.36-0.19h0.47c0.09,0,0.29,0,0.6,0c0.28,0,0.53,0,0.75,0h3.72
		c0.09,0,0.19,0,0.31,0c0.29,0,0.44,0.08,0.44,0.24c0,0.1-0.05,0.16-0.16,0.17c-0.1,0.01-0.45,0.03-1.04,0.04
		c-0.24,0-0.41,0.01-0.49,0.04c-0.17,0.06-0.27,0.16-0.29,0.3c-0.02,0.06-0.03,0.47-0.03,1.23v7.7c0,1.89,0.36,3.18,1.09,3.87
		s1.81,1.03,3.25,1.03c2.64,0,4.13-1.24,4.48-3.72c0.05-0.37,0.08-1.95,0.08-4.73v-1.23v-1.72v-1.48c0-0.14,0-0.3,0-0.47
		c0-0.19,0-0.27,0-0.24c0-0.32-0.18-0.51-0.54-0.58c-0.12-0.03-0.47-0.04-1.05-0.04c-0.34,0-0.51-0.08-0.51-0.24
		c0-0.13,0.12-0.19,0.36-0.19c0.14,0,0.25,0,0.34,0c0.21,0,0.96,0,2.26,0c0.19,0,0.41,0,0.65,0c0.23,0,0.39,0,0.49,0h0.39
		C185.78,62.02,185.98,62.08,185.98,62.21z"/>
	<path d="M202.06,72.17c0-0.03-0.02,0.17-0.05,0.58c-0.07,0.83-0.1,1.64-0.1,2.41c0,0.09,0.02,0.26,0.05,0.53s0.05,0.59,0.05,0.96
		v0.19c0,0.19-0.07,0.28-0.21,0.28s-0.26-0.11-0.36-0.32c-0.24-0.47-0.49-0.78-0.73-0.93c-1.25,0.9-2.75,1.36-4.5,1.36
		c-2.55,0-4.66-0.74-6.34-2.21c-1.67-1.47-2.51-3.33-2.51-5.57c0-2.25,0.77-4.1,2.3-5.53s3.52-2.14,5.95-2.14
		c0.88,0,1.59,0.06,2.12,0.18s1.18,0.37,1.96,0.74c0.38,0.19,0.67,0.28,0.86,0.28c0.16,0,0.3-0.12,0.44-0.35
		c0.23-0.4,0.41-0.6,0.55-0.6c0.14,0,0.21,0.06,0.21,0.17c0,0.06-0.02,0.15-0.05,0.28c-0.19,0.69-0.29,1.98-0.29,3.88
		c0,0.27-0.03,0.43-0.08,0.47c-0.05,0.04-0.12,0.06-0.21,0.06c-0.17,0-0.29-0.14-0.34-0.41c-0.23-1.15-0.55-2-0.96-2.56
		c-0.85-1.15-2.19-1.72-4.01-1.72c-1.41,0-2.52,0.39-3.33,1.16c-1.47,1.39-2.21,3.43-2.21,6.12c0,2.4,0.61,4.26,1.82,5.58
		c1.06,1.15,2.46,1.72,4.22,1.72c0.9,0,1.73-0.18,2.47-0.55c0.75-0.37,1.32-0.87,1.72-1.5c0.45-0.73,0.77-1.53,0.96-2.39
		c0.07-0.34,0.18-0.52,0.34-0.52C201.97,71.85,202.06,71.95,202.06,72.17z"/>
	<path d="M218.06,65.86c0,0.19-0.1,0.28-0.31,0.28s-0.36-0.19-0.44-0.56c-0.04-0.26-0.07-0.52-0.1-0.78
		c-0.12-0.52-0.32-0.96-0.6-1.31c-0.36-0.47-0.96-0.78-1.8-0.91c-0.54-0.09-0.97-0.12-1.3-0.11c-0.82,0.02-1.31,0.03-1.48,0.04
		v13.02c0,0.52,0.16,0.84,0.49,0.97c0.17,0.07,0.66,0.12,1.46,0.13c0.21,0.01,0.31,0.07,0.31,0.18c0,0.12-0.14,0.18-0.42,0.18
		c-0.14,0-0.26-0.01-0.36-0.02c-1.04-0.03-1.78-0.04-2.21-0.04c-0.57,0-1.11,0.01-1.61,0.03s-1.15,0.03-1.93,0.03
		c-0.4,0-0.6-0.06-0.6-0.17c0-0.13,0.37-0.2,1.12-0.22c0.54,0,0.88-0.09,1.04-0.28c0.09-0.12,0.13-0.41,0.13-0.88V62.51
		c-1.72,0.01-2.78,0.09-3.2,0.22c-1.09,0.33-1.73,1.21-1.93,2.65c-0.05,0.43-0.17,0.65-0.36,0.65c-0.21,0-0.31-0.15-0.31-0.45
		c0-0.16,0.01-0.32,0.03-0.47l0.05-0.5c0.05-0.66,0.13-1.53,0.23-2.61h1.17l5.31,0.07c0.62,0.01,1.6,0.01,2.91,0l4.32-0.07
		c0.03,0.81,0.15,2,0.34,3.58c0,0.04,0.01,0.1,0.03,0.16C218.05,65.8,218.06,65.84,218.06,65.86z"/>
	<path d="M230.65,72.77c0,1.24-0.57,2.29-1.7,3.16s-2.5,1.3-4.1,1.3c-0.94,0-2.06-0.24-3.36-0.71c-0.35-0.13-0.61-0.19-0.78-0.19
		c-0.21,0-0.34,0.2-0.39,0.6c-0.02,0.21-0.13,0.31-0.34,0.31c-0.17,0-0.26-0.09-0.26-0.26c0-0.12,0.01-0.2,0.03-0.26
		c0.14-0.88,0.21-1.69,0.21-2.44c0-0.14-0.02-0.55-0.05-1.21c-0.02-0.09-0.03-0.2-0.03-0.34c0-0.22,0.1-0.32,0.31-0.32
		c0.17,0,0.29,0.17,0.36,0.52c0.45,2.58,1.92,3.87,4.4,3.87c1.06,0,1.88-0.25,2.46-0.74c0.58-0.5,0.87-1.2,0.87-2.1
		c0-0.8-0.28-1.49-0.85-2.06c-0.56-0.57-1.53-1.13-2.9-1.69c-1.65-0.68-2.79-1.33-3.43-1.96c-0.64-0.63-0.96-1.42-0.96-2.35
		c0-1.19,0.46-2.18,1.39-2.95c0.93-0.78,2.1-1.16,3.53-1.16c0.59,0,1.4,0.17,2.45,0.5c0.36,0.12,0.63,0.17,0.81,0.17
		c0.19,0,0.32-0.03,0.38-0.09s0.12-0.21,0.17-0.45c0.03-0.14,0.13-0.22,0.29-0.22c0.17,0,0.26,0.09,0.26,0.26
		c0,0.12-0.01,0.2-0.03,0.26c-0.05,0.34-0.08,0.76-0.08,1.25c0,0.69,0.04,1.24,0.13,1.64l0.03,0.34c0.02,0.16-0.06,0.24-0.23,0.24
		c-0.19,0-0.32-0.17-0.39-0.5c-0.19-0.85-0.64-1.56-1.35-2.12s-1.51-0.85-2.39-0.85c-0.87,0-1.56,0.23-2.07,0.69
		s-0.77,1.08-0.77,1.88c0,0.92,0.37,1.66,1.12,2.22c0.42,0.32,1.32,0.76,2.71,1.34c1.63,0.67,2.8,1.36,3.51,2.06
		C230.3,71.09,230.65,71.88,230.65,72.77z"/>
</g>
</svg>
