<?xml version="1.0" encoding="utf-8"?>
<!-- Generator: Adobe Illustrator 24.2.3, SVG Export Plug-In . SVG Version: 6.00 Build 0)  -->
<svg version="1.1" id="Layer_1" xmlns="http://www.w3.org/2000/svg" xmlns:xlink="http://www.w3.org/1999/xlink" x="0px" y="0px"
	 viewBox="0 0 263 122.2" style="enable-background:new 0 0 263 122.2;" xml:space="preserve">
<style type="text/css">
	.st0{fill:none;}
	.st1{fill:#1A1A1A;}
</style>
<path class="st0" d="M133.2,20.8h-3.5c0.3,1.2,0.6,2.5,0.8,4.1h1.9C132.6,23.3,132.9,22,133.2,20.8z"/>
<path class="st0" d="M242.4,23.1v-2.4H134.3c-1.3,2.2-1.9,4.1-1.9,4.1h105.8l0.6,2.6c1.7,7.7,7.7,13.8,15.4,15.4l2.6,0.6v54
	l-2.6,0.6c-7.7,1.7-13.8,7.7-15.4,15.4l-0.6,2.7H24.7l-0.6-2.7c-1.7-7.7-7.7-13.8-15.4-15.4L6,97.5v-54l2.7-0.6
	c7.7-1.7,13.8-7.7,15.4-15.4l0.6-2.6h105.8c0,0-0.6-1.9-1.9-4.1H20.5v2.4c0,8.9-7.3,16.2-16.2,16.2H2v62.4h2.4
	c8.9,0,16.2,7.3,16.2,16.2v2.4h221.9v-2.4c0-8.9,7.3-16.2,16.2-16.2h2.4V39.3h-2.4C249.7,39.3,242.4,32.1,242.4,23.1z"/>
<path class="st1" d="M258.6,37.3c-7.8,0-14.2-6.4-14.2-14.2v-4.4H135.7c2-2.4,4.9-4.5,9.1-4.4l-4.1-3.3c0,0-4.3,0.5-6.9,7.7h-4.8
	c-2.6-7.2-6.9-7.7-6.9-7.7l-4.1,3.3c4.2-0.1,7.1,2,9.1,4.4H18.6v4.4c0,7.8-6.4,14.2-14.2,14.2H0v66.3h4.4c7.8,0,14.2,6.4,14.2,14.2
	v4.4h225.8v-4.4c0-7.8,6.4-14.2,14.2-14.2h4.4V37.3H258.6z M261,101.7h-2.4c-8.9,0-16.2,7.3-16.2,16.2v2.4H20.5v-2.4
	c0-8.9-7.3-16.2-16.2-16.2H2V39.3h2.4c8.9,0,16.2-7.3,16.2-16.2v-2.4h108.1c1.3,2.2,1.9,4.1,1.9,4.1c-0.2-1.5-0.5-2.9-0.8-4.1h3.5
	c-0.3,1.2-0.6,2.5-0.8,4.1c0,0,0.6-1.9,1.9-4.1h108.1v2.4c0,8.9,7.3,16.2,16.2,16.2h2.4L261,101.7L261,101.7z"/>
<path class="st1" d="M24.1,27.5c-1.7,7.7-7.7,13.8-15.4,15.4L6,43.5v54l2.7,0.6c7.7,1.7,13.8,7.7,15.4,15.4l0.6,2.7h213.5l0.6-2.7
	c1.7-7.7,7.7-13.8,15.4-15.4l2.6-0.6v-54l-2.6-0.6c-7.7-1.7-13.8-7.7-15.4-15.4l-0.6-2.6H132.4h-1.9H24.7L24.1,27.5z M234.6,29.3
	c2.2,8.7,9.1,15.5,17.8,17.8v46.8c-8.7,2.2-15.5,9.1-17.8,17.8H28.3c-2.2-8.7-9.1-15.5-17.8-17.8V47.1c8.7-2.2,15.5-9.1,17.8-17.8
	H234.6z"/>
<polygon class="st1" points="134.2,5.5 131.5,0 128.8,5.5 131.5,18.5 "/>
<g>
	<path d="M50.7,66.9c-0.2-0.6-0.6-1.2-0.9-1.8c-0.4-0.6-0.8-1.1-1.3-1.6c-0.5-0.5-1.1-0.8-1.7-1.1c-0.6-0.3-1.3-0.4-2-0.4
		c-1.1,0-1.9,0.2-2.6,0.6c-0.7,0.4-1,1.1-1,2.1c0,0.6,0.2,1.1,0.5,1.6c0.3,0.4,0.7,0.8,1.2,1.2c0.5,0.3,1.1,0.6,1.8,0.9
		c0.7,0.3,1.3,0.6,2,0.9c0.7,0.3,1.3,0.6,2,0.9s1.2,0.7,1.8,1.2c0.5,0.5,0.9,1,1.2,1.6c0.3,0.6,0.5,1.4,0.5,2.2
		c0,0.9-0.2,1.7-0.5,2.4c-0.3,0.7-0.8,1.2-1.4,1.6c-0.6,0.4-1.2,0.7-2,1s-1.6,0.3-2.4,0.3c-0.5,0-1,0-1.5-0.1s-1-0.2-1.5-0.3
		c-0.5-0.1-0.9-0.2-1.3-0.3c-0.4-0.1-0.7-0.1-0.9-0.1c-0.2,0-0.4,0-0.6,0.1c-0.2,0.1-0.4,0.1-0.6,0.2c-0.2-1.1-0.4-2.1-0.6-3.1
		c-0.2-1-0.5-2-0.7-3.1l0.4-0.2c0.3,0.7,0.7,1.3,1.2,2s1,1.4,1.6,1.9c0.6,0.6,1.3,1.1,2,1.5c0.7,0.4,1.5,0.6,2.3,0.6
		c0.5,0,1.1-0.1,1.6-0.2c0.5-0.1,0.9-0.3,1.3-0.6c0.4-0.3,0.7-0.6,0.9-1c0.2-0.4,0.3-0.9,0.3-1.6c0-0.9-0.3-1.6-0.8-2.2
		c-0.5-0.6-1.2-1.1-2-1.5c-0.8-0.4-1.7-0.8-2.6-1.2c-0.9-0.4-1.8-0.8-2.6-1.3c-0.8-0.5-1.5-1-2-1.7c-0.5-0.6-0.8-1.4-0.8-2.4
		c0-0.7,0.1-1.4,0.4-2c0.3-0.6,0.7-1.1,1.1-1.5c0.5-0.4,1-0.7,1.7-1c0.6-0.2,1.3-0.3,2-0.3c0.7,0,1.3,0,1.9,0.1
		c0.6,0.1,1.1,0.2,1.6,0.3c0.5,0.1,1.1,0.2,1.6,0.3c0.5,0.1,1.1,0.2,1.7,0.2c0,0.8,0,1.7,0,2.5c0,0.8,0.1,1.6,0.2,2.4H50.7z"/>
	<path d="M56.4,74c0,1,0.1,1.8,0.4,2.4s0.6,1.1,1,1.5c0.4,0.4,0.8,0.6,1.2,0.8c0.4,0.1,0.8,0.2,1.2,0.2c0.8,0,1.5-0.1,2.1-0.4
		s1.2-0.6,1.8-1.2l0.5,0.4c-0.8,0.8-1.5,1.4-2.4,1.9c-0.8,0.4-1.8,0.6-2.9,0.6c-0.8,0-1.5-0.2-2.2-0.5c-0.6-0.3-1.2-0.7-1.6-1.3
		c-0.4-0.5-0.8-1.1-1-1.8s-0.4-1.4-0.4-2.1c0-0.7,0.1-1.4,0.4-2.1s0.6-1.3,1-1.8c0.4-0.5,1-0.9,1.6-1.3c0.6-0.3,1.4-0.5,2.2-0.5
		c1.5,0,2.7,0.4,3.6,1.2s1.4,2,1.7,3.7H56.4z M61.9,73.1c-0.1-0.5-0.1-1-0.2-1.4c-0.1-0.4-0.2-0.7-0.4-1c-0.2-0.3-0.5-0.5-0.8-0.6
		c-0.3-0.1-0.8-0.2-1.3-0.2c-0.4,0-0.8,0.1-1.1,0.3c-0.3,0.2-0.6,0.4-0.8,0.8c-0.2,0.3-0.4,0.7-0.5,1c-0.1,0.4-0.2,0.8-0.2,1.1H61.9
		z"/>
	<path d="M67.5,71.7c0.1-0.6,0.4-1,0.6-1.4c0.3-0.3,0.6-0.6,0.9-0.8c0.4-0.2,0.8-0.3,1.2-0.3c0.4,0,0.9-0.1,1.4-0.1
		c0.5,0,1,0.1,1.4,0.2c0.5,0.1,0.9,0.3,1.3,0.5c0.4,0.2,0.7,0.6,0.9,1c0.2,0.4,0.3,0.9,0.3,1.5v5.2c0,0.4,0.1,0.7,0.3,0.9
		c0.2,0.3,0.5,0.4,0.9,0.4c0.4,0,0.7-0.1,1-0.3c0.3-0.2,0.6-0.4,0.8-0.6l0.3,0.3c-0.2,0.2-0.4,0.4-0.7,0.7s-0.5,0.5-0.8,0.7
		c-0.3,0.2-0.6,0.4-0.9,0.6s-0.6,0.2-0.9,0.2c-0.2,0-0.4-0.1-0.6-0.2c-0.2-0.1-0.4-0.3-0.6-0.4c-0.2-0.2-0.4-0.3-0.5-0.5
		c-0.2-0.2-0.3-0.3-0.4-0.5c-0.6,0.4-1.3,0.8-2,1.1c-0.7,0.3-1.5,0.5-2.2,0.5c-0.4,0-0.8-0.1-1.1-0.2c-0.4-0.1-0.7-0.3-1-0.6
		c-0.3-0.2-0.5-0.5-0.7-0.9s-0.3-0.7-0.3-1.1c0-0.8,0.2-1.4,0.6-1.8c0.4-0.5,1-0.8,1.7-1c0.7-0.2,1.5-0.4,2.3-0.5
		c0.9-0.1,1.7-0.1,2.6-0.2v-2.1c0-0.7-0.2-1.2-0.6-1.6c-0.4-0.4-1-0.6-1.6-0.6c-0.5,0-0.9,0.2-1.1,0.7c-0.3,0.5-0.4,1-0.4,1.7
		L67.5,71.7z M73.6,75.1c-0.6-0.2-1.2-0.3-1.9-0.3c-0.4,0-0.7,0-1.1,0.1c-0.4,0.1-0.7,0.2-1,0.4c-0.3,0.2-0.5,0.4-0.7,0.7
		s-0.3,0.6-0.3,1c0,0.6,0.2,1.1,0.7,1.4s0.9,0.4,1.5,0.4c0.6,0,1.1-0.1,1.6-0.4c0.5-0.2,0.9-0.4,1.1-0.6V75.1z"/>
	<path d="M79.2,79.6c0.6-0.1,1.1-0.3,1.5-0.5c0.3-0.2,0.5-0.6,0.5-1.2v-6.5c0-0.6-0.2-0.9-0.6-1c-0.4-0.1-0.8-0.2-1.3-0.2v-0.3
		l4.1-0.6v1.6c0.2-0.1,0.5-0.3,0.8-0.6c0.3-0.2,0.6-0.5,0.9-0.7c0.3-0.2,0.7-0.4,1-0.6s0.7-0.3,1-0.3c0.7,0,1.3,0.2,1.6,0.6
		c0.4,0.4,0.6,1,0.6,1.7L87,72.2c0-0.1,0.1-0.3,0.1-0.4c0-0.1,0.1-0.3,0.1-0.5c0-0.3-0.1-0.5-0.3-0.7c-0.2-0.2-0.4-0.4-0.8-0.4
		c-0.3,0-0.5,0.1-0.8,0.2c-0.3,0.1-0.5,0.3-0.8,0.5s-0.5,0.4-0.7,0.6c-0.2,0.2-0.4,0.4-0.6,0.6V78c0,0.6,0.2,1,0.5,1.2
		c0.4,0.2,0.9,0.3,1.6,0.5V80c-0.6,0-1.3-0.1-1.9-0.1s-1.3,0-1.9,0c-0.4,0-0.8,0-1.2,0c-0.4,0-0.8,0-1.2,0.1V79.6z"/>
	<path d="M100.1,73.8c-0.2-0.5-0.4-0.9-0.6-1.4c-0.2-0.5-0.5-0.9-0.8-1.3c-0.3-0.4-0.7-0.7-1.1-0.9c-0.4-0.2-0.9-0.4-1.5-0.4
		c-0.6,0-1.1,0.1-1.5,0.4c-0.4,0.3-0.7,0.6-1,1.1s-0.4,0.9-0.6,1.5c-0.1,0.6-0.2,1.1-0.2,1.6c0,0.6,0.1,1.2,0.3,1.8
		c0.2,0.6,0.5,1.1,0.9,1.5c0.4,0.4,0.8,0.8,1.4,1c0.5,0.3,1.1,0.4,1.8,0.4c0.7,0,1.3-0.1,2-0.4c0.6-0.3,1.2-0.6,1.8-1l0.4,0.4
		c-0.8,0.7-1.7,1.2-2.5,1.6c-0.8,0.3-1.7,0.5-2.7,0.5c-0.7,0-1.4-0.1-2.1-0.4c-0.7-0.3-1.2-0.7-1.7-1.2s-0.9-1.1-1.2-1.8
		c-0.3-0.7-0.4-1.4-0.4-2.2s0.1-1.5,0.4-2.2c0.3-0.7,0.7-1.3,1.2-1.8s1.1-0.9,1.7-1.2c0.7-0.3,1.4-0.4,2.1-0.4c0.8,0,1.5,0,2.2,0.1
		s1.3,0.2,2,0.3l0.4,4.3H100.1z"/>
	<path d="M116.3,80c-0.5,0-1.1-0.1-1.7-0.1c-0.6,0-1.2,0-1.9,0c-0.4,0-0.8,0-1.2,0c-0.4,0-0.8,0-1.2,0.1v-0.3
		c0.6-0.1,1.1-0.3,1.4-0.5c0.3-0.2,0.5-0.6,0.5-1.2v-4.5c0-1-0.2-1.7-0.6-2.2c-0.4-0.5-1.1-0.8-1.9-0.8c-0.3,0-0.6,0-1,0.1
		c-0.3,0.1-0.6,0.2-0.9,0.4c-0.3,0.2-0.5,0.3-0.7,0.5c-0.2,0.2-0.3,0.4-0.3,0.5V78c0,0.6,0.2,1,0.5,1.2c0.4,0.2,0.9,0.3,1.6,0.5V80
		c-0.6,0-1.3-0.1-1.9-0.1s-1.3,0-1.9,0c-0.4,0-0.8,0-1.2,0c-0.4,0-0.8,0-1.2,0.1v-0.3c0.6-0.1,1.1-0.3,1.5-0.5
		c0.3-0.2,0.5-0.6,0.5-1.2V63.7c0-0.7,0-1.2-0.1-1.6c-0.1-0.4-0.2-0.7-0.3-0.9c-0.2-0.2-0.4-0.3-0.6-0.4c-0.3-0.1-0.6-0.1-1-0.1
		v-0.3l4.3-0.5v10.8c0.5-0.4,1.1-0.8,1.7-1.1s1.3-0.5,1.9-0.5c0.5,0,1,0.1,1.5,0.2s0.9,0.3,1.3,0.6c0.4,0.3,0.7,0.7,0.9,1.2
		c0.2,0.5,0.3,1.1,0.3,1.9V78c0,0.6,0.2,1,0.5,1.2c0.3,0.2,0.8,0.3,1.5,0.5V80z"/>
	<path d="M133.7,80c-0.7,0-1.4-0.1-2.1-0.1c-0.7,0-1.4,0-2.1,0c-0.7,0-1.4,0-2.1,0s-1.4,0-2.1,0.1v-0.3c0.7-0.1,1.2-0.2,1.6-0.3
		c0.4-0.1,0.7-0.4,0.9-0.7c0.2-0.3,0.3-0.7,0.4-1.2s0.1-1.2,0.1-1.9v-9.4c0-0.8,0-1.4-0.1-1.9c0-0.5-0.2-0.9-0.4-1.2
		c-0.2-0.3-0.5-0.6-0.9-0.7c-0.4-0.1-0.9-0.3-1.6-0.3v-0.3c0.6,0,1.2,0.1,1.8,0.1c0.6,0,1.2,0,1.8,0c0.9,0,1.8,0,2.6-0.1
		s1.8-0.1,2.6-0.1c0.7,0,1.4,0.1,2.2,0.4s1.5,0.6,2.1,1.1c0.6,0.5,1.2,1.1,1.6,1.7c0.4,0.7,0.6,1.5,0.6,2.3c0,0.9-0.2,1.7-0.6,2.3
		c-0.4,0.6-0.9,1.1-1.6,1.5c-0.6,0.4-1.3,0.7-2.1,0.8s-1.5,0.3-2.2,0.3c-0.6,0-1.1,0-1.7-0.1s-1.2-0.2-1.7-0.4v4.2
		c0,0.8,0,1.4,0.1,1.9c0,0.5,0.2,0.9,0.4,1.2c0.2,0.3,0.5,0.6,0.9,0.7c0.4,0.2,0.9,0.3,1.6,0.3V80z M130.8,70.2
		c0.4,0.2,0.9,0.4,1.4,0.5c0.5,0.1,1,0.1,1.4,0.1c0.6,0,1.1-0.1,1.7-0.3c0.5-0.2,1-0.4,1.4-0.8c0.4-0.3,0.7-0.7,0.9-1.2
		s0.3-1,0.3-1.7c0-0.7-0.1-1.4-0.3-2s-0.6-1.1-1-1.5c-0.4-0.4-0.9-0.7-1.5-1c-0.6-0.2-1.2-0.3-1.9-0.3c-0.3,0-0.7,0-1.2,0.1
		c-0.5,0-0.9,0.2-1.3,0.4V70.2z"/>
	<path d="M142.2,79.6c0.6-0.1,1.1-0.3,1.5-0.5c0.3-0.2,0.5-0.6,0.5-1.2v-6.5c0-0.6-0.2-0.9-0.6-1s-0.8-0.2-1.3-0.2v-0.3l4.1-0.6v1.6
		c0.2-0.1,0.5-0.3,0.8-0.6c0.3-0.2,0.6-0.5,0.9-0.7c0.3-0.2,0.7-0.4,1-0.6s0.7-0.3,1-0.3c0.7,0,1.3,0.2,1.6,0.6
		c0.4,0.4,0.6,1,0.6,1.7l-2.2,1.2c0-0.1,0.1-0.3,0.1-0.4c0-0.1,0.1-0.3,0.1-0.5c0-0.3-0.1-0.5-0.3-0.7s-0.4-0.4-0.8-0.4
		c-0.3,0-0.5,0.1-0.8,0.2c-0.3,0.1-0.5,0.3-0.8,0.5c-0.2,0.2-0.5,0.4-0.7,0.6s-0.4,0.4-0.6,0.6V78c0,0.6,0.2,1,0.5,1.2
		c0.4,0.2,0.9,0.3,1.6,0.5V80c-0.6,0-1.3-0.1-1.9-0.1s-1.3,0-1.9,0c-0.4,0-0.8,0-1.2,0s-0.8,0-1.2,0.1V79.6z"/>
	<path d="M159.5,69.1c0.9,0,1.7,0.1,2.4,0.4s1.4,0.6,1.9,1.1s0.9,1.1,1.2,1.8c0.3,0.7,0.4,1.5,0.4,2.3c0,0.8-0.1,1.6-0.4,2.3
		c-0.3,0.7-0.7,1.3-1.2,1.8s-1.2,0.9-1.9,1.1s-1.6,0.4-2.4,0.4c-0.9,0-1.7-0.1-2.5-0.4c-0.7-0.3-1.4-0.6-1.9-1.1s-0.9-1.1-1.2-1.8
		c-0.3-0.7-0.4-1.5-0.4-2.3c0-0.8,0.1-1.6,0.4-2.3c0.3-0.7,0.7-1.3,1.2-1.8s1.2-0.9,1.9-1.1C157.8,69.2,158.6,69.1,159.5,69.1z
		 M159,69.9c-0.5,0-1,0.1-1.4,0.4c-0.4,0.3-0.7,0.6-1,1s-0.4,0.9-0.6,1.4c-0.1,0.5-0.2,1.1-0.2,1.6c0,0.6,0.1,1.2,0.2,1.8
		c0.2,0.6,0.4,1.1,0.7,1.6c0.3,0.5,0.8,0.9,1.3,1.2c0.5,0.3,1.1,0.5,1.8,0.5c0.5,0,1-0.1,1.4-0.4c0.4-0.3,0.7-0.6,1-1
		s0.4-0.9,0.6-1.4c0.1-0.5,0.2-1.1,0.2-1.6c0-0.6-0.1-1.2-0.3-1.8s-0.4-1.2-0.8-1.7c-0.3-0.5-0.8-0.9-1.3-1.2
		C160.3,70.1,159.7,69.9,159,69.9z"/>
	<path d="M178.9,77c0,0.5,0,0.9,0.1,1.2c0.1,0.3,0.2,0.6,0.3,0.8c0.2,0.2,0.4,0.3,0.7,0.4c0.3,0.1,0.7,0.1,1.2,0.1v0.3
		c-0.7,0-1.5,0-2.2,0s-1.5,0-2.3,0.1v-1c-0.4,0.4-1,0.7-1.8,1s-1.6,0.4-2.5,0.4c-0.8,0-1.5-0.1-2.1-0.4c-0.6-0.3-1.2-0.7-1.6-1.2
		c-0.4-0.5-0.8-1.1-1-1.7s-0.4-1.3-0.4-2c0-0.8,0.1-1.6,0.4-2.3c0.3-0.7,0.7-1.3,1.2-1.8s1.2-0.9,1.9-1.2c0.7-0.3,1.5-0.4,2.3-0.4
		c0.6,0,1.2,0.1,1.8,0.3c0.6,0.2,1.1,0.5,1.7,0.8V63c0-0.4,0-0.8-0.1-1.1c-0.1-0.3-0.2-0.5-0.4-0.7s-0.4-0.3-0.7-0.4
		c-0.3-0.1-0.7-0.1-1.2-0.2v-0.3l4.6-0.4V77z M176.7,72.1c-0.1-0.2-0.2-0.5-0.4-0.8c-0.2-0.3-0.5-0.5-0.8-0.7s-0.7-0.4-1.1-0.5
		s-0.8-0.2-1.2-0.2c-0.6,0-1.2,0.1-1.6,0.4s-0.8,0.6-1.1,1.1c-0.3,0.5-0.5,1-0.6,1.5c-0.1,0.6-0.2,1.1-0.2,1.7
		c0,0.6,0.1,1.1,0.2,1.7c0.1,0.6,0.3,1.1,0.6,1.5c0.3,0.5,0.6,0.8,1.1,1.1c0.4,0.3,1,0.4,1.6,0.4c0.4,0,0.8-0.1,1.2-0.2
		c0.4-0.1,0.7-0.3,1.1-0.5s0.6-0.4,0.8-0.6s0.4-0.4,0.4-0.6V72.1z"/>
	<path d="M186.2,76.4c0,0.8,0.2,1.4,0.6,1.8s1,0.6,1.8,0.6c0.6,0,1.2-0.1,1.8-0.4c0.6-0.3,1-0.6,1.3-0.9v-5.9c0-0.2,0-0.5-0.1-0.7
		c0-0.2-0.1-0.4-0.3-0.5c-0.1-0.2-0.4-0.3-0.7-0.4c-0.3-0.1-0.7-0.2-1.2-0.3v-0.3l4.4-0.3v8.6c0,0.7,0.2,1.2,0.5,1.4
		c0.4,0.2,0.9,0.4,1.5,0.4v0.3c-0.7,0-1.4,0.1-2.1,0.1c-0.7,0-1.4,0-2.1,0.1v-1.5c-0.7,0.5-1.3,0.9-2.1,1.3s-1.5,0.5-2.3,0.5
		c-0.9,0-1.7-0.3-2.3-0.8s-1-1.3-1-2.3v-5.8c0-0.6-0.2-0.9-0.5-1.1c-0.3-0.2-0.9-0.4-1.6-0.4v-0.4l4.3-0.4V76.4z"/>
	<path d="M207.2,73.8c-0.2-0.5-0.4-0.9-0.6-1.4c-0.2-0.5-0.5-0.9-0.8-1.3c-0.3-0.4-0.7-0.7-1.1-0.9c-0.4-0.2-0.9-0.4-1.5-0.4
		c-0.6,0-1.1,0.1-1.5,0.4c-0.4,0.3-0.7,0.6-1,1.1s-0.4,0.9-0.6,1.5c-0.1,0.6-0.2,1.1-0.2,1.6c0,0.6,0.1,1.2,0.3,1.8
		c0.2,0.6,0.5,1.1,0.9,1.5c0.4,0.4,0.8,0.8,1.4,1c0.5,0.3,1.1,0.4,1.8,0.4c0.7,0,1.3-0.1,2-0.4s1.2-0.6,1.8-1l0.4,0.4
		c-0.8,0.7-1.7,1.2-2.5,1.6c-0.8,0.3-1.7,0.5-2.7,0.5c-0.7,0-1.4-0.1-2.1-0.4c-0.7-0.3-1.2-0.7-1.7-1.2c-0.5-0.5-0.9-1.1-1.2-1.8
		c-0.3-0.7-0.4-1.4-0.4-2.2s0.1-1.5,0.4-2.2c0.3-0.7,0.7-1.3,1.2-1.8c0.5-0.5,1.1-0.9,1.7-1.2c0.7-0.3,1.4-0.4,2.1-0.4
		c0.8,0,1.5,0,2.2,0.1c0.7,0.1,1.3,0.2,2,0.3l0.4,4.3H207.2z"/>
	<path d="M209.2,70.4V70c0.6,0,1.1-0.2,1.5-0.4c0.4-0.3,0.8-0.6,1.1-1.1s0.6-0.9,0.8-1.4c0.2-0.5,0.4-1,0.6-1.5h0.4v4.1h3.8v0.8
		h-3.8v6.5c0,0.2,0,0.5,0,0.7c0,0.2,0.1,0.4,0.2,0.6s0.2,0.3,0.4,0.4c0.2,0.1,0.4,0.2,0.7,0.2c0.6,0,1-0.1,1.4-0.4
		c0.4-0.2,0.7-0.6,1.1-0.9l0.3,0.3c-0.3,0.3-0.6,0.6-0.9,0.9c-0.3,0.3-0.6,0.6-0.9,0.8s-0.7,0.4-1.1,0.6c-0.4,0.1-0.8,0.2-1.2,0.2
		c-0.8,0-1.3-0.2-1.6-0.7c-0.3-0.5-0.4-1-0.4-1.7v-7.5H209.2z"/>
	<path d="M219,76.3h0.4c0.3,0.4,0.6,0.8,0.9,1.1c0.3,0.4,0.7,0.7,1.1,1s0.8,0.5,1.3,0.7s0.9,0.3,1.4,0.3c0.2,0,0.5,0,0.7-0.1
		c0.3,0,0.5-0.1,0.7-0.2c0.2-0.1,0.4-0.3,0.5-0.4c0.1-0.2,0.2-0.4,0.2-0.7c0-0.5-0.2-0.8-0.5-1.1c-0.3-0.3-0.8-0.6-1.3-0.8
		c-0.5-0.2-1.1-0.4-1.7-0.6c-0.6-0.2-1.2-0.4-1.7-0.7c-0.5-0.3-0.9-0.6-1.3-1c-0.3-0.4-0.5-0.9-0.5-1.5c0-1,0.3-1.8,0.9-2.3
		c0.6-0.5,1.4-0.8,2.4-0.8c0.7,0,1.4,0.1,2.1,0.3s1.3,0.3,2.1,0.3l0.2,3h-0.4c-0.2-0.4-0.4-0.7-0.7-1c-0.3-0.3-0.6-0.6-0.9-0.9
		c-0.3-0.3-0.7-0.5-1.1-0.6c-0.4-0.2-0.8-0.2-1.2-0.2c-0.5,0-0.9,0.1-1.3,0.3c-0.4,0.2-0.6,0.6-0.6,1.1c0,0.4,0.2,0.7,0.5,1
		c0.3,0.3,0.8,0.5,1.3,0.7c0.5,0.2,1.1,0.4,1.7,0.6s1.2,0.5,1.7,0.7c0.5,0.3,0.9,0.6,1.3,1.1s0.5,0.9,0.5,1.6c0,0.7-0.1,1.2-0.3,1.6
		c-0.2,0.4-0.5,0.8-0.9,1c-0.4,0.2-0.8,0.4-1.3,0.5c-0.5,0.1-1,0.2-1.6,0.2c-0.4,0-0.9,0-1.3-0.1c-0.4-0.1-0.8-0.1-1.2-0.2
		c-0.4-0.1-0.7-0.2-1-0.3s-0.6-0.1-0.8-0.2L219,76.3z"/>
</g>
</svg>
